:SAMPLES-PER-SECOND 30
:FRAME-RANGE 1-1390
:FULLY-SPECIFIED
:DEGREES
913
root  62.299 38.0371 -25.3134 173.859 -36.9369 -175.68
RightUpLeg  -82.5816 -15.3671 58.0173
RightLeg  129.912 5.48244 -5.4924
RightFoot  -35.0543 0.00735118 1.17438
RightToes  6.35937e-011 1.2921e-014 -6.02303e-014
Spine  14.2228 -0.806158 3.46264
Spine1  -1.60701 1.89302 -3.78435
HEad  -10.4448 25.4075 -13.1694
LeftShoulder1  3.1853 -9.19604 -19.2248
LeftArm  49.6895 -21.76 -70.3607
LeftForeArm  21.3237 -5.08476 -18.0563
LeftHand  0.0136852 7.0496 3.33397
RightShoulder  3.0861 6.76708 24.6273
RightArm  -4.7995 31.9584 91.2153
RightForeArm  123.361 -3.09855 4.7258
RightHand  2.07993 -20.397 -16.164
LeftUpLeg  -9.5073 -14.9546 -7.3435
LeftLeg  42.3777 4.15625 4.47085
LeftFoot  -15.0148 0.129685 1.23372
LeftToes  4.52251e-011 4.07896e-011 -5.42348e-012
914
root  62.1046 39.3612 -26.4537 173.082 -38.1245 -174.545
RightUpLeg  -83.3938 -13.6378 57.9481
RightLeg  129.273 6.05772 -6.26896
RightFoot  -34.3016 0.200604 2.13961
RightToes  6.35937e-011 1.2921e-014 -6.02303e-014
Spine  13.707 -0.269079 4.21114
Spine1  -1.87936 2.2875 -4.80833
HEad  -7.35792 24.1394 -11.8067
LeftShoulder1  3.30188 -9.34684 -19.8891
LeftArm  44.1684 -22.0195 -70.8224
LeftForeArm  27.1227 -3.48261 -18.1193
LeftHand  0.0129669 7.29989 2.95953
RightShoulder  3.01012 6.75456 23.8703
RightArm  -5.02805 31.8876 90.5001
RightForeArm  120.573 -3.25275 4.90055
RightHand  1.95376 -19.9273 -15.7192
LeftUpLeg  -8.38051 -14.5519 -4.79538
LeftLeg  40.5365 1.68767 1.95044
LeftFoot  -5.07062 0.184451 -2.81129
LeftToes  4.52251e-011 4.07896e-011 -5.42348e-012
915
root  61.7976 40.2303 -27.4751 172.26 -38.4823 -173.966
RightUpLeg  -83.2187 -12.0034 57.8953
RightLeg  128.749 5.70928 -5.99285
RightFoot  -33.6997 0.3634 3.00111
RightToes  6.35937e-011 1.2921e-014 -6.02303e-014
Spine  13.7815 0.13662 5.63541
Spine1  -1.7151 2.97811 -6.65643
HEad  -5.41119 22.9978 -11.9106
LeftShoulder1  3.35112 -9.3683 -20.2587
LeftArm  42.1652 -22.2765 -70.5805
LeftForeArm  29.4505 -2.88224 -18.1017
LeftHand  0.0144103 7.43744 2.88694
RightShoulder  2.9939 7.06989 22.7432
RightArm  -5.49219 32.0368 91.233
RightForeArm  119.002 -3.23778 4.37688
RightHand  1.82815 -19.6359 -15.0635
LeftUpLeg  -8.52734 -14.5023 -3.34256
LeftLeg  40.8921 -0.480488 -0.0448974
LeftFoot  1.57069 0.229615 -2.11364
LeftToes  4.52251e-011 4.07896e-011 -5.42348e-012
916
root  61.3481 40.6935 -28.4056 171.752 -38.4743 -173.638
RightUpLeg  -82.283 -10.992 58.0044
RightLeg  127.977 4.82721 -5.12915
RightFoot  -33.5818 0.543036 3.92684
RightToes  6.35937e-011 1.2921e-014 -6.02303e-014
Spine  14.4671 0.309455 6.63992
Spine1  -2.06101 3.46184 -7.59281
HEad  -4.40463 22.715 -13.3495
LeftShoulder1  3.27895 -8.99735 -20.4855
LeftArm  41.9674 -22.0897 -69.8587
LeftForeArm  29.4809 -2.72591 -18.1171
LeftHand  0.0156778 7.3561 2.90201
RightShoulder  3.08216 7.40473 22.6631
RightArm  -4.64969 32.5917 91.2797
RightForeArm  117.303 -3.39265 4.84333
RightHand  1.77246 -19.3556 -14.9172
LeftUpLeg  -8.58346 -15.6335 -2.73378
LeftLeg  39.1321 -0.810216 -0.314497
LeftFoot  -1.71977 0.172377 -1.92548
LeftToes  4.52251e-011 4.07896e-011 -5.42348e-012
917
root  60.8663 40.7846 -29.2211 172.487 -39.3881 -174.349
RightUpLeg  -81.7757 -10.7441 58.3503
RightLeg  126.974 4.89303 -5.4084
RightFoot  -34.6449 0.684943 4.46698
RightToes  6.35937e-011 1.2921e-014 -6.02303e-014
Spine  15.38 0.265732 5.92818
Spine1  -2.68649 3.42994 -7.04179
HEad  -4.81419 22.3732 -15.1787
LeftShoulder1  3.22744 -8.8861 -20.2935
LeftArm  42.7091 -22.0711 -69.3471
LeftForeArm  28.2064 -2.82979 -18.1578
LeftHand  0.0147339 7.35264 2.99681
RightShoulder  3.02189 7.18663 22.6865
RightArm  -5.62697 32.0657 92.0096
RightForeArm  117.754 -3.25396 4.12905
RightHand  1.8342 -19.3553 -15.402
LeftUpLeg  -9.63725 -18.2601 -3.37271
LeftLeg  34.7682 0.203522 0.52827
LeftFoot  -6.87177 0.078015 -0.940779
LeftToes  4.52251e-011 4.07896e-011 -5.42348e-012
918
root  60.3999 40.4203 -29.9582 174.08 -41.0785 -175.618
RightUpLeg  -82.7304 -11.5817 58.2035
RightLeg  126.542 3.87744 -4.23541
RightFoot  -34.1562 0.455558 3.41203
RightToes  6.35937e-011 1.2921e-014 -6.02303e-014
Spine  16.1358 0.00114015 4.82072
Spine1  -3.08395 3.18169 -6.24563
HEad  -6.16263 21.4693 -16.7607
LeftShoulder1  3.26168 -9.24432 -19.7742
LeftArm  41.8352 -22.8843 -69.1965
LeftForeArm  28.8788 -2.54852 -18.1588
LeftHand  0.00990786 7.21778 2.4306
RightShoulder  3.09002 7.38164 22.8073
RightArm  -4.29987 32.7118 91.9404
RightForeArm  116.376 -3.44656 4.91143
RightHand  1.87988 -19.2296 -15.898
LeftUpLeg  -12.2665 -20.7803 -4.42785
LeftLeg  30.6829 2.28911 1.83123
LeftFoot  -11.9915 0.0663758 -0.98255
LeftToes  4.52251e-011 4.07896e-011 -5.42348e-012
919
root  59.8079 39.5429 -30.6107 175.529 -42.4457 -176.672
RightUpLeg  -82.8717 -13.2967 58.4106
RightLeg  126.745 2.25195 -2.18587
RightFoot  -34.7196 0.417085 3.1608
RightToes  6.35937e-011 1.2921e-014 -6.02303e-014
Spine  16.5717 -0.331295 4.65523
Spine1  -3.17777 3.12049 -5.59298
HEad  -7.3968 20.5953 -18.0098
LeftShoulder1  3.29945 -9.52862 -19.4706
LeftArm  39.3791 -23.6433 -69.3095
LeftForeArm  30.9463 -1.88274 -18.1239
LeftHand  0.00289364 7.40765 2.30575
RightShoulder  3.05721 7.39804 22.434
RightArm  -4.98587 32.6983 92.8008
RightForeArm  117.156 -3.28522 4.15191
RightHand  1.92594 -19.3616 -16.1141
LeftUpLeg  -15.4477 -21.4089 -5.77533
LeftLeg  28.4331 6.14937 3.95664
LeftFoot  -14.8816 0.0525338 -1.18791
LeftToes  4.52251e-011 4.07896e-011 -5.42348e-012
920
root  59.4211 38.4342 -31.3753 175.79 -42.8611 -176.816
RightUpLeg  -81.5127 -12.8521 57.9398
RightLeg  126.196 1.59121 -1.39707
RightFoot  -34.3449 0.45666 3.39521
RightToes  6.35937e-011 1.2921e-014 -6.02303e-014
Spine  17.1937 -0.20909 5.07372
Spine1  -2.80329 3.19676 -5.27297
HEad  -8.03728 20.3231 -18.2261
LeftShoulder1  3.29079 -9.70395 -19.025
LeftArm  39.8988 -23.5306 -69.7044
LeftForeArm  30.2673 -2.06752 -18.1404
LeftHand  0.00536094 7.21356 2.61819
RightShoulder  3.10833 7.58994 22.3995
RightArm  -4.94352 32.8201 93.1734
RightForeArm  117.869 -3.22523 3.98778
RightHand  1.98671 -19.6602 -16.2551
LeftUpLeg  -17.3428 -19.6268 -6.66866
LeftLeg  26.9695 8.89546 5.24074
LeftFoot  -10.1067 0.0494604 1.04608
LeftToes  4.52251e-011 4.07896e-011 -5.42348e-012
